<?xml version="1.0" standalone="no"?><!-- Generator: Gravit.io --><svg xmlns="http://www.w3.org/2000/svg" xmlns:xlink="http://www.w3.org/1999/xlink" style="isolation:isolate" viewBox="591.9230769230769 351.92307692307696 96.15384615384619 96.15384615384613" width="96.15384615384619" height="96.15384615384613"><path d=" M 591.9230769230769 400 C 591.9230769230769 373.46153846153845 613.4615384615385 351.92307692307696 640 351.92307692307696 C 666.5384615384615 351.92307692307696 688.0769230769231 373.4615384615385 688.0769230769231 400.00000000000006 C 688.0769230769231 426.53846153846155 666.5384615384615 448.0769230769231 640 448.0769230769231 C 613.4615384615385 448.0769230769231 591.9230769230769 426.53846153846155 591.9230769230769 400 Z  M 598.8942307692307 400 C 598.8942307692307 422.69230769230774 617.3076923076923 441.1057692307693 640 441.1057692307693 C 662.6923076923076 441.1057692307693 681.1057692307692 422.69230769230774 681.1057692307692 400.00000000000006 C 681.1057692307692 377.3076923076923 662.6923076923076 358.8942307692308 640 358.8942307692308 C 617.3076923076923 358.8942307692308 598.8942307692307 377.3076923076923 598.8942307692307 400 Z  M 618.8461538461538 393.8701923076923 L 640 372.7163461538462 L 661.1538461538461 393.8701923076923 L 661.1538461538461 404.56730769230774 L 645.7692307692307 389.1826923076923 L 645.7692307692307 425 L 634.2307692307692 425 L 634.2307692307692 389.1826923076923 L 618.8461538461538 404.56730769230774 L 618.8461538461538 393.8701923076923 Z " fill-rule="evenodd" fill="rgb(102,98,91)" stroke-width="3.8461538461538463" stroke="rgba(0,0,0,0)" stroke-linejoin="miter" stroke-linecap="butt"/></svg>