<?xml version="1.0" standalone="no"?><!-- Generator: Gravit.io --><svg xmlns="http://www.w3.org/2000/svg" xmlns:xlink="http://www.w3.org/1999/xlink" style="isolation:isolate" viewBox="1213.0625 1787.5 44.9375 44.9375" width="44.9375" height="44.9375"><path d=" M 1249.0125 1787.5 L 1222.05 1787.5 C 1217.0942925 1787.5 1213.0625 1791.5317925 1213.0625 1796.4875 L 1213.0625 1823.45 C 1213.0625 1828.4057075 1217.0942925 1832.4375 1222.05 1832.4375 L 1249.0125 1832.4375 C 1253.9682075 1832.4375 1258 1828.4057075 1258 1823.45 L 1258 1796.4875 C 1258 1791.5317925 1253.9682075 1787.5 1249.0125 1787.5 Z  M 1248.11375 1802.77875 L 1245.4175 1802.77875 C 1243.48968125 1802.77875 1242.72125 1803.23172 1242.72125 1804.57625 L 1242.72125 1807.2725 L 1248.11375 1807.2725 L 1247.215 1812.665 L 1242.72125 1812.665 L 1242.72125 1830.64 L 1236.43 1830.64 L 1236.43 1812.665 L 1233.73375 1812.665 L 1233.73375 1807.2725 L 1236.43 1807.2725 L 1236.43 1804.57625 C 1236.43 1800.37279625 1237.85092375 1797.38625 1242.72125 1797.38625 C 1245.3294225 1797.38625 1248.11375 1798.285 1248.11375 1798.285 L 1248.11375 1802.77875 Z " fill-rule="evenodd" fill="rgb(185,185,185)" stroke-width="2" stroke="rgba(0,0,0,0)" stroke-linejoin="miter" stroke-linecap="butt"/></svg>