<?xml version="1.0" standalone="no"?><!-- Generator: Gravit.io --><svg xmlns="http://www.w3.org/2000/svg" xmlns:xlink="http://www.w3.org/1999/xlink" style="isolation:isolate" viewBox="1313.6911558493593 1785.5 49.18384415064088 49.18384415064088" width="49.18384415064088" height="49.18384415064088"><path d=" M 1353.038231169872 1785.5 L 1323.5279246794876 1785.5 C 1318.1039303465548 1785.5 1313.6911558493593 1789.9127744971954 1313.6911558493593 1795.3367688301282 L 1313.6911558493593 1824.8470753205127 C 1313.6911558493593 1830.2710696534455 1318.1039303465548 1834.6838441506409 1323.5279246794876 1834.6838441506409 L 1353.038231169872 1834.6838441506409 C 1358.4622255028048 1834.6838441506409 1362.8750000000002 1830.2710696534455 1362.8750000000002 1824.8470753205127 L 1362.8750000000002 1795.3367688301282 C 1362.8750000000002 1789.9127744971954 1358.4622255028048 1785.5 1353.038231169872 1785.5 Z  M 1329.4299859775645 1819.8303232171472 L 1329.4299859775645 1826.8144290865384 L 1321.5605709134618 1826.8144290865384 L 1321.5605709134618 1804.1898607772434 L 1329.4299859775645 1804.1898607772434 L 1329.4299859775645 1819.8303232171472 Z  M 1325.4952784455131 1801.7306685697115 C 1323.1344539262825 1801.7306685697115 1321.5605709134618 1800.0584178685897 1321.5605709134618 1797.9926964142628 C 1321.5605709134618 1795.926974959936 1323.1344539262825 1794.3530919471154 1325.4952784455131 1794.3530919471154 C 1327.856102964744 1794.3530919471154 1329.3316182892631 1795.926974959936 1329.4299859775645 1797.9926964142628 C 1329.4299859775645 1800.0584178685897 1327.9544706530453 1801.7306685697115 1325.4952784455131 1801.7306685697115 Z  M 1355.0055849358978 1826.8144290865384 L 1347.1361698717951 1826.8144290865384 C 1347.1361698717951 1826.8144290865384 1347.1361698717951 1814.9119388020833 1347.1361698717951 1814.0266296073717 C 1347.1361698717951 1813.1413204126602 1347.0378021834938 1810.0919220753203 1343.6933007812504 1810.0919220753203 C 1340.7422701322118 1810.0919220753203 1340.2504316907055 1812.9445850360576 1340.2504316907055 1814.0266296073717 C 1340.2504316907055 1815.1086741786858 1340.2504316907055 1826.8144290865384 1340.2504316907055 1826.8144290865384 L 1332.3810166266028 1826.8144290865384 L 1332.3810166266028 1804.1898607772434 L 1340.2504316907055 1804.1898607772434 L 1340.2504316907055 1807.2392591145833 C 1340.2504316907055 1807.2392591145833 1341.824314703526 1804.1898607772434 1346.447596053686 1804.1898607772434 C 1351.1692450921478 1804.1898607772434 1355.0055849358978 1807.4359944911857 1355.0055849358978 1814.0266296073717 L 1355.0055849358978 1826.8144290865384 Z " fill-rule="evenodd" fill="rgb(185,185,185)" stroke-width="2" stroke="rgba(0,0,0,0)" stroke-linejoin="miter" stroke-linecap="butt"/></svg>